<svg width="466" height="466" viewBox="0 0 466 466" fill="none" xmlns="http://www.w3.org/2000/svg">
<g clip-path="url(#clip0_378_6)">
<path d="M302.228 263.186L416.243 377.137L377.137 416.243L263.186 302.228L260.625 299.666V303.288V464.5H205.375V303.288V299.666L202.814 302.228L88.8633 416.243L49.7572 377.137L163.772 263.186L166.334 260.625H162.712H1.5V205.375H162.712H166.334L163.772 202.814L49.7572 88.8633L88.8633 49.7572L202.814 163.772L205.375 166.334V162.712V1.5H260.625V162.712V166.334L263.186 163.772L377.137 49.7572L416.243 88.8633L302.228 202.814L299.666 205.375H303.288H464.5V260.625H303.288H299.666L302.228 263.186Z" stroke="#D663FF" stroke-opacity="0.3" stroke-width="3"/>
</g>
<defs>
<clipPath id="clip0_378_6">
<rect width="466" height="466" fill="white"/>
</clipPath>
</defs>
</svg>
