<svg width="790" height="790" viewBox="0 0 790 790" fill="none" xmlns="http://www.w3.org/2000/svg">
<g clip-path="url(#clip0_378_4)">
<path d="M513.098 445.436L707.123 639.352L639.352 707.123L445.436 513.098L442.875 510.536V514.158V788.5H347.125V514.158V510.536L344.564 513.098L150.648 707.123L82.8772 639.352L276.902 445.436L279.464 442.875H275.842H1.5V347.125H275.842H279.464L276.902 344.564L82.8772 150.648L150.648 82.8772L344.564 276.902L347.125 279.464V275.842V1.5H442.875V275.842V279.464L445.436 276.902L639.352 82.8772L707.123 150.648L513.098 344.564L510.536 347.125H514.158H788.5V442.875H514.158H510.536L513.098 445.436Z" stroke="#D663FF" stroke-opacity="0.3" stroke-width="3"/>
</g>
<defs>
<clipPath id="clip0_378_4">
<rect width="790" height="790" fill="white"/>
</clipPath>
</defs>
</svg>
