<svg width="175" height="131" viewBox="0 0 175 131" fill="none" xmlns="http://www.w3.org/2000/svg">
<path d="M148.75 0H26.25C19.2881 0 12.6113 2.58783 7.68845 7.19419C2.76562 11.8006 0 18.0481 0 24.5625V106.438C0 112.952 2.76562 119.199 7.68845 123.806C12.6113 128.412 19.2881 131 26.25 131H148.75C155.712 131 162.389 128.412 167.312 123.806C172.234 119.199 175 112.952 175 106.438V24.5625C175 18.0481 172.234 11.8006 167.312 7.19419C162.389 2.58783 155.712 0 148.75 0ZM26.25 16.375H148.75C151.071 16.375 153.296 17.2376 154.937 18.7731C156.578 20.3085 157.5 22.391 157.5 24.5625L87.5 64.5175L17.5 24.5625C17.5 22.391 18.4219 20.3085 20.0628 18.7731C21.7038 17.2376 23.9294 16.375 26.25 16.375ZM157.5 106.438C157.5 108.609 156.578 110.691 154.937 112.227C153.296 113.762 151.071 114.625 148.75 114.625H26.25C23.9294 114.625 21.7038 113.762 20.0628 112.227C18.4219 110.691 17.5 108.609 17.5 106.438V43.23L82.95 80.6469C84.2802 81.3655 85.789 81.7438 87.325 81.7438C88.8609 81.7438 90.3698 81.3655 91.7 80.6469L157.5 43.23V106.438Z" fill="#FAF4C2"/>
</svg>
