<svg width="36" height="44" viewBox="0 0 36 44" fill="none" xmlns="http://www.w3.org/2000/svg">
<g clip-path="url(#clip0_362_5)">
<path d="M25.8116 38.0967C25.8116 37.2482 25.8429 32.9331 25.8429 29.4459C25.8429 27.0141 25.0283 25.4619 24.0675 24.6445C29.9053 23.9925 36.0564 23.1958 36.0564 13.21C36.0564 10.3747 35.033 8.94669 33.362 7.11511C33.6336 6.4425 34.5212 3.67961 33.0905 0.0888856C30.9079 -0.594076 25.8847 2.88282 25.8847 2.88282C21.5925 1.71006 17.0601 1.71006 12.7679 2.88282C12.7679 2.88282 7.7447 -0.583728 5.56206 0.0888856C4.13133 3.66926 5.01901 6.4425 5.29054 7.11511C3.61961 8.93634 2.82593 10.3644 2.82593 13.21C2.82593 23.1647 8.71593 24.0029 14.5537 24.6445C13.8018 25.3274 13.123 26.476 12.8828 28.1317C11.3894 28.8147 7.55672 29.9633 5.26965 25.969C3.83892 23.5062 1.23855 23.2992 1.23855 23.2992C-1.32005 23.2682 1.07146 24.8928 1.07146 24.8928C2.78415 25.6689 3.97469 28.6801 3.97469 28.6801C5.50985 33.316 12.8201 31.7638 12.8201 31.7638C12.8201 33.9369 12.8515 37.4759 12.8515 38.1174C12.8515 38.701 12.4974 39.3933 11.5304 39.4109C16.5706 41.0253 21.9974 41.0166 27.0324 39.3861C26.1478 39.3219 25.8116 38.6597 25.8116 38.0967ZM3.05568 24.5513C2.98257 24.6962 2.77371 24.7272 2.60662 24.6238C2.39775 24.5203 2.29332 24.3547 2.36642 24.2202C2.43952 24.1167 2.60662 24.0857 2.81548 24.1478C3.02435 24.2512 3.12878 24.4168 3.05568 24.5513ZM4.11045 25.6999C3.97469 25.8345 3.73449 25.762 3.5674 25.5965C3.38986 25.3999 3.35853 25.1619 3.49429 25.0584C3.63006 24.9239 3.87025 24.9963 4.03734 25.1619C4.21488 25.3585 4.24517 25.5965 4.11045 25.6999ZM5.14433 27.2314C5.00857 27.3349 4.7266 27.2314 4.55951 26.9934C4.39241 26.7554 4.39241 26.4864 4.55951 26.3829C4.7266 26.2484 4.99813 26.3519 5.14433 26.5899C5.31142 26.8279 5.31142 27.0969 5.14433 27.2314ZM6.56461 28.6491C6.42885 28.8147 6.126 28.7836 5.8858 28.5456C5.64561 28.349 5.58295 28.0386 5.75004 27.904C5.8858 27.7385 6.1991 27.7695 6.42885 28.0075C6.63772 28.2041 6.70038 28.5146 6.56461 28.6491ZM8.51751 29.4976C8.45485 29.7046 8.14155 29.8081 7.87002 29.7046C7.55672 29.6425 7.34786 29.4045 7.42096 29.1975C7.49407 28.9906 7.79692 28.8871 8.06844 28.9595C8.38174 29.0527 8.58017 29.2907 8.51751 29.4976ZM10.1258 30.0357C9.78114 30.0668 9.54095 29.9012 9.54095 29.6632C9.54095 29.4562 9.78114 29.2907 10.084 29.2907C10.3973 29.2596 10.6688 29.4252 10.6688 29.6632C10.6688 29.8753 10.4286 30.0357 10.1258 30.0357ZM12.1726 29.7977C11.8594 29.8701 11.5878 29.7356 11.5565 29.5287C11.5252 29.2907 11.734 29.0941 12.0369 29.0216C12.3397 28.9906 12.6217 29.1251 12.653 29.3217C12.6844 29.5183 12.4755 29.7253 12.1726 29.7977Z" fill="#181818"/>
</g>
<defs>
<clipPath id="clip0_362_5">
<rect width="36" height="44" fill="white"/>
</clipPath>
</defs>
</svg>
