<svg width="129" height="128" viewBox="0 0 129 128" fill="none" xmlns="http://www.w3.org/2000/svg">
<path d="M98.2756 22.144C96.7567 22.144 95.2718 22.5944 94.0088 23.4383C92.7459 24.2822 91.7615 25.4817 91.1802 26.885C90.5989 28.2883 90.4468 29.8325 90.7432 31.3223C91.0395 32.8121 91.771 34.1805 92.845 35.2546C93.9191 36.3286 95.2875 37.0601 96.7773 37.3564C98.2671 37.6528 99.8113 37.5007 101.215 36.9194C102.618 36.3381 103.817 35.3538 104.661 34.0908C105.505 32.8278 105.956 31.343 105.956 29.824C105.956 27.7871 105.146 25.8337 103.706 24.3934C102.266 22.9531 100.312 22.144 98.2756 22.144ZM127.716 37.632C127.591 32.3219 126.597 27.0682 124.772 22.08C123.144 17.812 120.612 13.9474 117.348 10.752C114.178 7.47153 110.305 4.95473 106.02 3.392C101.045 1.51143 95.785 0.494144 90.4676 0.384C83.6836 -3.57628e-07 81.5076 0 64.0996 0C46.6916 0 44.5156 -3.57628e-07 37.7316 0.384C32.4142 0.494144 27.1546 1.51143 22.1796 3.392C17.9023 4.97055 14.032 7.48519 10.8516 10.752C7.57114 13.9211 5.05434 17.7948 3.49161 22.08C1.61104 27.055 0.593753 32.3146 0.483609 37.632C0.099609 44.416 0.0996094 46.592 0.0996094 64C0.0996094 81.408 0.099609 83.584 0.483609 90.368C0.593753 95.6854 1.61104 100.945 3.49161 105.92C5.05434 110.205 7.57114 114.079 10.8516 117.248C14.032 120.515 17.9023 123.029 22.1796 124.608C27.1546 126.489 32.4142 127.506 37.7316 127.616C44.5156 128 46.6916 128 64.0996 128C81.5076 128 83.6836 128 90.4676 127.616C95.785 127.506 101.045 126.489 106.02 124.608C110.305 123.045 114.178 120.528 117.348 117.248C120.626 114.065 123.161 110.196 124.772 105.92C126.597 100.932 127.591 95.6781 127.716 90.368C127.716 83.584 128.1 81.408 128.1 64C128.1 46.592 128.1 44.416 127.716 37.632ZM116.196 89.6C116.149 93.6625 115.413 97.6877 114.02 101.504C112.998 104.289 111.356 106.806 109.22 108.864C107.144 110.979 104.632 112.617 101.86 113.664C98.0433 115.058 94.0182 115.793 89.9556 115.84C83.5556 116.16 81.1876 116.224 64.3556 116.224C47.5236 116.224 45.1556 116.224 38.7556 115.84C34.5373 115.919 30.337 115.269 26.3396 113.92C23.6886 112.82 21.2923 111.186 19.2996 109.12C17.1754 107.064 15.5546 104.545 14.5636 101.76C13.0011 97.889 12.1344 93.7724 12.0036 89.6C12.0036 83.2 11.6196 80.832 11.6196 64C11.6196 47.168 11.6196 44.8 12.0036 38.4C12.0323 34.2468 12.7905 30.1308 14.2436 26.24C15.3703 23.5386 17.0997 21.1306 19.2996 19.2C21.244 16.9995 23.6471 15.2518 26.3396 14.08C30.2407 12.6723 34.3524 11.9365 38.4996 11.904C44.8996 11.904 47.2676 11.52 64.0996 11.52C80.9316 11.52 83.2996 11.52 89.6996 11.904C93.7621 11.9506 97.7873 12.6864 101.604 14.08C104.512 15.1594 107.122 16.9142 109.22 19.2C111.317 21.1659 112.956 23.5695 114.02 26.24C115.442 30.1372 116.178 34.2514 116.196 38.4C116.516 44.8 116.58 47.168 116.58 64C116.58 80.832 116.516 83.2 116.196 89.6ZM64.0996 31.168C57.6088 31.1807 51.2674 33.117 45.8766 36.7323C40.4858 40.3476 36.2876 45.4797 33.8125 51.48C31.3373 57.4804 30.6962 64.0798 31.9703 70.4444C33.2443 76.8089 36.3763 82.653 40.9705 87.2383C45.5647 91.8235 51.4149 94.9441 57.7819 96.2057C64.1489 97.4674 70.7471 96.8135 76.7426 94.3266C82.7381 91.8398 87.862 87.6316 91.4668 82.2338C95.0716 76.836 96.9956 70.4908 96.9956 64C97.0041 59.6807 96.1585 55.4023 94.5075 51.4109C92.8566 47.4196 90.4328 43.794 87.3756 40.7427C84.3184 37.6915 80.6881 35.2747 76.6935 33.6315C72.6989 31.9884 68.4189 31.1511 64.0996 31.168ZM64.0996 85.312C59.8845 85.312 55.764 84.0621 52.2593 81.7203C48.7546 79.3785 46.0229 76.05 44.4099 72.1558C42.7968 68.2615 42.3748 63.9764 43.1971 59.8422C44.0194 55.7081 46.0492 51.9107 49.0298 48.9301C52.0103 45.9496 55.8077 43.9198 59.9418 43.0975C64.076 42.2752 68.3611 42.6972 72.2554 44.3103C76.1496 45.9233 79.4781 48.6549 81.8199 52.1597C84.1617 55.6644 85.4116 59.7849 85.4116 64C85.4116 66.7987 84.8604 69.5701 83.7893 72.1558C82.7183 74.7414 81.1485 77.0909 79.1695 79.0699C77.1905 81.0489 74.841 82.6187 72.2554 83.6897C69.6697 84.7607 66.8983 85.312 64.0996 85.312Z" fill="#CECECE"/>
</svg>
