<svg width="128" height="128" viewBox="0 0 128 128" fill="none" xmlns="http://www.w3.org/2000/svg">
<path d="M118.535 0.000894904H9.46479C8.23873 -0.0160304 7.02133 0.207276 5.88211 0.658062C4.74289 1.10885 3.70417 1.77828 2.82526 2.62813C1.94634 3.47799 1.24447 4.49161 0.759706 5.61112C0.274945 6.73062 0.0167945 7.93408 0 9.15277V118.847C0.0167945 120.066 0.274945 121.269 0.759706 122.389C1.24447 123.508 1.94634 124.522 2.82526 125.372C3.70417 126.222 4.74289 126.891 5.88211 127.342C7.02133 127.793 8.23873 128.016 9.46479 127.999H118.535C119.761 128.016 120.979 127.793 122.118 127.342C123.257 126.891 124.296 126.222 125.175 125.372C126.054 124.522 126.756 123.508 127.24 122.389C127.725 121.269 127.983 120.066 128 118.847V9.15277C127.983 7.93408 127.725 6.73062 127.24 5.61112C126.756 4.49161 126.054 3.47799 125.175 2.62813C124.296 1.77828 123.257 1.10885 122.118 0.658062C120.979 0.207276 119.761 -0.0160304 118.535 0.000894904ZM38.825 107.135H19.5091V49.5362H38.825V107.135ZM29.167 41.4723C26.5031 41.4723 23.9483 40.4204 22.0646 38.5481C20.181 36.6758 19.1227 34.1363 19.1227 31.4885C19.1227 28.8406 20.181 26.3011 22.0646 24.4288C23.9483 22.5565 26.5031 21.5046 29.167 21.5046C30.5815 21.3451 32.014 21.4845 33.3706 21.9134C34.7272 22.3424 35.9774 23.0514 37.0392 23.9939C38.1011 24.9364 38.9507 26.0913 39.5324 27.3828C40.1141 28.6743 40.4148 30.0734 40.4148 31.4885C40.4148 32.9035 40.1141 34.3026 39.5324 35.5941C38.9507 36.8856 38.1011 38.0405 37.0392 38.983C35.9774 39.9255 34.7272 40.6345 33.3706 41.0635C32.014 41.4924 30.5815 41.6318 29.167 41.4723ZM108.491 107.135H89.175V76.2238C89.175 68.4799 86.4064 63.424 79.3883 63.424C77.2163 63.4398 75.1014 64.117 73.3285 65.3643C71.5556 66.6116 70.21 68.3691 69.4728 70.3999C68.969 71.9042 68.7507 73.4883 68.829 75.0718V107.071H49.5131C49.5131 107.071 49.5131 54.7201 49.5131 49.4722H68.829V57.6001C70.5837 54.5736 73.1358 52.0803 76.2105 50.3887C79.2851 48.6971 82.7658 47.8713 86.2777 48.0002C99.1549 48.0002 108.491 56.2561 108.491 73.9839V107.135Z" fill="#CECECE"/>
</svg>
