<svg width="48" height="48" viewBox="0 0 48 48" fill="none" xmlns="http://www.w3.org/2000/svg">
<g clip-path="url(#clip0_328_168)">
<path d="M24 22.4194L28.9989 7.42906C28.9989 7.42894 28.9989 7.42882 28.999 7.4287C30.1312 4.01905 27.5921 0.5 24 0.5C20.4006 0.5 17.8627 4.01956 19.001 7.4283L19.001 7.4285L24 22.4194Z" stroke="#D663FF" stroke-opacity="0.6"/>
<path d="M22.4194 24L7.42906 19.0011C7.42894 19.0011 7.42882 19.0011 7.4287 19.001C4.01905 17.8688 0.5 20.4079 0.5 24C0.5 27.5994 4.01956 30.1373 7.4283 28.999L7.42849 28.999L22.4194 24Z" stroke="#D663FF" stroke-opacity="0.6"/>
<path d="M28.9991 40.5717L28.999 40.5715L24 25.5806L19.0012 40.5709C17.8686 43.9807 20.4078 47.5 24 47.5C27.5994 47.5 30.1373 43.9804 28.9991 40.5717Z" stroke="#D663FF" stroke-opacity="0.6"/>
<path d="M40.5717 19.0009L40.5715 19.001L25.5806 24L40.5709 28.9988C43.9807 30.1314 47.5 27.5922 47.5 24C47.5 20.4006 43.9804 17.8627 40.5717 19.0009Z" stroke="#D663FF" stroke-opacity="0.6"/>
<path d="M7.3803 7.38013L7.38026 7.38016L7.37363 7.3868C7.37362 7.38681 7.37361 7.38682 7.37359 7.38683C4.83498 9.92549 5.52893 14.2119 8.7436 15.8193C8.74363 15.8193 8.74366 15.8193 8.74368 15.8194L22.876 22.8825L15.8129 8.75018C15.8128 8.75016 15.8128 8.75013 15.8128 8.75011C14.2054 5.53542 9.91895 4.84147 7.3803 7.38013Z" stroke="#D663FF" stroke-opacity="0.6"/>
<path d="M7.38022 40.6197L7.38027 40.6198L7.38689 40.6264C9.92555 43.165 14.212 42.4711 15.8194 39.2564C15.8194 39.2564 15.8194 39.2563 15.8195 39.2563L22.8825 25.124L8.75028 32.1871C8.75025 32.1872 8.75022 32.1872 8.7502 32.1872C5.53551 33.7946 4.84156 38.081 7.38022 40.6197Z" stroke="#D663FF" stroke-opacity="0.6"/>
<path d="M40.6198 40.6198L40.6198 40.6198L40.6265 40.6131C40.6265 40.6131 40.6265 40.6131 40.6265 40.6131C43.1651 38.0744 42.4712 33.788 39.2565 32.1806C39.2565 32.1806 39.2564 32.1806 39.2564 32.1805L25.1241 25.1175L32.1872 39.2497C32.1872 39.2498 32.1873 39.2498 32.1873 39.2498C33.7947 42.4645 38.0811 43.1584 40.6198 40.6198Z" stroke="#D663FF" stroke-opacity="0.6"/>
<path d="M40.6199 7.3802L40.6199 7.3802L40.6132 7.37354C40.6132 7.37354 40.6132 7.37353 40.6132 7.37353C38.0745 4.83488 33.7881 5.52883 32.1807 8.74351C32.1807 8.74354 32.1807 8.74357 32.1806 8.74359L25.1175 22.8759L39.2498 15.8128C39.2498 15.8128 39.2499 15.8127 39.2499 15.8127C42.4646 14.2053 43.1585 9.91886 40.6199 7.3802Z" stroke="#D663FF" stroke-opacity="0.6"/>
</g>
<defs>
<clipPath id="clip0_328_168">
<rect width="48" height="48" fill="white" transform="matrix(-1 0 0 1 48 0)"/>
</clipPath>
</defs>
</svg>
