<svg width="80" height="80" viewBox="0 0 80 80" fill="none" xmlns="http://www.w3.org/2000/svg">
<g clip-path="url(#clip0_282_2103)">
<path d="M40.0001 38.4194L48.6479 12.4868C50.607 6.58819 46.2145 0.5 40.0001 0.5C33.774 0.5 29.3828 6.58845 31.3522 12.4861L31.3522 12.4863L40.0001 38.4194Z" stroke="#D663FF" stroke-opacity="0.6"/>
<path d="M38.4194 40L12.4868 31.3523C6.58819 29.3931 0.5 33.7856 0.5 40C0.5 46.2261 6.58845 50.6174 12.4861 48.648L12.4863 48.6479L38.4194 40Z" stroke="#D663FF" stroke-opacity="0.6"/>
<path d="M48.6479 67.5137L48.6479 67.5139C50.6173 73.4116 46.2261 79.5 40 79.5C33.7858 79.5 29.3933 73.4122 31.3521 67.5137H48.6479ZM48.6479 67.5137L40 41.5806L31.3523 67.5132L48.6479 67.5137Z" stroke="#D663FF" stroke-opacity="0.6"/>
<path d="M67.5137 31.3521L67.5139 31.352C73.4116 29.3827 79.5 33.7739 79.5 40C79.5 46.2142 73.4122 50.6066 67.5137 48.6479V31.3521ZM67.5137 31.3521L41.5806 40L67.5132 48.6477L67.5137 31.3521Z" stroke="#D663FF" stroke-opacity="0.6"/>
<path d="M12.0645 12.0647L12.0645 12.0647L12.0534 12.0758C7.66144 16.4678 8.86205 23.8831 14.4234 26.6639C14.4234 26.6639 14.4235 26.6639 14.4235 26.6639L38.8713 38.8825L26.6527 14.4347C26.6527 14.4347 26.6526 14.4347 26.6526 14.4346C23.8719 8.87329 16.4565 7.67267 12.0645 12.0647Z" stroke="#D663FF" stroke-opacity="0.6"/>
<path d="M12.0647 67.9353L12.0647 67.9354L12.0758 67.9464C12.0758 67.9465 12.0758 67.9465 12.0758 67.9465C16.4678 72.3384 23.8831 71.1378 26.6639 65.5765C26.6639 65.5764 26.6639 65.5764 26.6639 65.5764L38.8825 41.1286L14.4347 53.3472C14.4347 53.3472 14.4347 53.3472 14.4346 53.3473C8.87329 56.128 7.67268 63.5433 12.0647 67.9353Z" stroke="#D663FF" stroke-opacity="0.6"/>
<path d="M67.9354 67.9353L67.9354 67.9353L67.9465 67.9242C67.9465 67.9242 67.9465 67.9242 67.9465 67.9242C72.3385 63.5322 71.1378 56.1169 65.5765 53.3361C65.5765 53.3361 65.5764 53.3361 65.5764 53.3361L41.1286 41.1175L53.3472 65.5653C53.3473 65.5653 53.3473 65.5653 53.3473 65.5654C56.128 71.1267 63.5434 72.3273 67.9354 67.9353Z" stroke="#D663FF" stroke-opacity="0.6"/>
<path d="M41.1174 38.8714L65.5652 26.6528C71.1266 23.8721 72.3273 16.4567 67.9352 12.0647L67.9241 12.0536C63.5321 7.66154 56.1167 8.86219 53.336 14.4236L41.1174 38.8714Z" stroke="#D663FF" stroke-opacity="0.6"/>
</g>
<defs>
<clipPath id="clip0_282_2103">
<rect width="80" height="80" fill="white" transform="matrix(-1 0 0 1 80 0)"/>
</clipPath>
</defs>
</svg>
