<svg width="35" height="31" viewBox="0 0 35 31" fill="none" xmlns="http://www.w3.org/2000/svg">
<g style="mix-blend-mode:exclusion">
<g style="mix-blend-mode:difference">
<path d="M28.4112 0L27.4 1.04332L25.7496 2.7448L21.0002 7.64307L20.8002 7.84971L19.3507 9.34412L17.4999 11.2522L14.2005 7.84971L10.9829 4.53159L8.6495 2.12532L7.60028 1.04332L6.58857 0H3.28955L5.35048 2.12532L6.99999 3.82637L7.60071 4.44629L7.68384 4.53159L11.6667 8.6389L12.3506 9.34412L12.5509 9.55076L14.0001 11.0452L14.2005 11.2518L14.6839 11.7504L17.4999 14.6543L18.6668 13.4514L20.3163 11.7504L20.7998 11.2518L21.0002 11.0452L22.4501 9.55076L22.6497 9.34412L27.3164 4.53159L27.3991 4.44629L27.9998 3.82637L29.6498 2.12532L31.7107 0H28.4112Z" fill="white"/>
</g>
<g style="mix-blend-mode:difference">
<path d="M25.6665 31.0001V26.4799V23.7813V23.2476L25.1489 23.7813L23.3335 25.6538L22.8155 26.1876L22.4502 26.5652L21.0002 28.0601L20.7998 28.2663L20.4822 28.5938H23.3335V31.0001H25.6665Z" fill="white"/>
</g>
<g style="mix-blend-mode:difference">
<path d="M11.6673 28.5938H14.5187L14.2011 28.2663L14.0007 28.0601L12.5516 26.5652L12.1853 26.1876L11.6673 25.6538L9.85199 23.7813L9.33398 23.2476V23.7813V26.4799V31.0001H11.6673V28.5938Z" fill="white"/>
</g>
<g style="mix-blend-mode:difference">
<path d="M32.6666 2.41706L32.349 2.7446L30.6995 4.44609L25.6666 9.63585L24.1002 11.252L23.6167 11.7502L21.0003 14.4484L20.7999 14.655L19.1504 16.3561L18.6669 16.8546L17.5 18.058L15.8501 16.3561L14.2006 14.655L14.0002 14.4484L9.05036 9.34391L4.38363 4.53139L4.3005 4.44609L2.65099 2.7446L2.33336 2.41706L0 0.0112305V9.34391V10.2202V11.7502V12.2839V13.6223V14.1564V15.6865V16.5627V18.8969V19.1659V30.9999H2.33336V28.5936V26.8925V9.34391V9.22301V5.82003L2.65099 6.14758L3.41712 6.93765L4.30135 7.84951L4.66672 8.2263L5.75048 9.34391L5.95086 9.55056L7.6008 11.252L8.08384 11.7502L9.25031 12.9531L9.33345 13.0388L10.4172 14.1564L10.9007 14.655L12.551 16.3565L12.7506 16.5627L14.0002 17.8514L14.2006 18.058L15.0839 18.969L15.8505 19.7595L16.3335 20.2576L17.4173 21.3752H17.5831L18.6669 20.2576L19.1504 19.7595L19.9165 18.969L20.8003 18.058L21.0003 17.8514L22.2499 16.5627L22.4502 16.3565L23.3336 15.4451L24.1002 14.655L24.5832 14.1564L25.6666 13.0388L25.7497 12.9531L26.9166 11.7502L27.4001 11.252L27.9999 10.6326L29.05 9.55056L29.2499 9.34391L30.3333 8.2263L30.6995 7.84951L31.5829 6.93765L32.3499 6.14758L32.6666 5.82003V26.8925V28.5936V30.9999H35V20.4278V19.0899V17.0257V15.6865V13.6223V12.2839V11.7502V10.2202V9.34391V0.0112305L32.6666 2.41706Z" fill="white"/>
</g>
<g style="mix-blend-mode:difference">
<path d="M30.3331 27.8885V25.2404V24.4864V21.8383V21.083V18.4349V17.68V15.0328V14.2775V11.6294L27.8825 14.1566L27.3998 14.6551L25.7495 16.3562L20.8824 21.3754L20.7997 21.4607L19.1501 23.1626L18.6667 23.6603L18.5494 23.7812L17.4998 24.8636L16.4506 23.7812L16.3333 23.6603L15.8503 23.1626L14.2003 21.4607L14.1172 21.3754L12.55 19.7592L9.25009 16.3562L7.60058 14.6551L7.11711 14.1566L4.6665 11.6294V14.2775V15.0328V17.68V18.4349V21.083V21.8383V24.4864V25.2404V27.8885V31H6.99987V27.6467V25.4827V23.7812V17.4391L10.8996 21.4607L13.1503 23.7812L14 24.6579L14.2003 24.8641L17.4998 28.267L19.5164 26.1875L20.8001 24.8641L21 24.6579L21.8497 23.7812L27.9997 17.4391V23.7812V25.4827V28.5937V31H30.3331V27.8885Z" fill="white"/>
</g>
</g>
</svg>
