<svg width="48" height="42" viewBox="0 0 48 42" fill="none" xmlns="http://www.w3.org/2000/svg">
<g style="mix-blend-mode:exclusion">
<g style="mix-blend-mode:difference">
<path d="M38.9638 0.336426L37.5769 1.72541L35.3136 3.99064L28.8001 10.5118L28.5259 10.7869L26.5379 12.7764L23.9997 15.3168L19.4748 10.7869L15.0621 6.36942L11.862 3.16591L10.4231 1.72541L9.0356 0.336426H4.51123L7.33765 3.16591L9.59984 5.43055L10.4237 6.25587L10.5377 6.36942L15.9999 11.8376L16.9378 12.7764L17.2126 13.0515L19.2 15.0411L19.4748 15.3162L20.1378 15.98L23.9997 19.8461L25.6 18.2446L27.8622 15.98L28.5253 15.3162L28.8001 15.0411L30.7886 13.0515L31.0623 12.7764L37.4623 6.36942L37.5758 6.25587L38.3996 5.43055L40.6624 3.16591L43.4888 0.336426H38.9638Z" fill="white"/>
</g>
<g style="mix-blend-mode:difference">
<path d="M35.1997 41.6073V35.5895V31.9967V31.2861L34.4899 31.9967L32.0003 34.4896L31.2899 35.2002L30.7888 35.703L28.8002 37.6932L28.5254 37.9677L28.0898 38.4037H32.0003V41.6073H35.1997Z" fill="white"/>
</g>
<g style="mix-blend-mode:difference">
<path d="M16.0008 38.4037H19.9113L19.4757 37.9677L19.2009 37.6932L17.2135 35.703L16.7112 35.2002L16.0008 34.4896L13.5112 31.9967L12.8008 31.2861V31.9967V35.5895V41.6073H16.0008V38.4037Z" fill="white"/>
</g>
<g style="mix-blend-mode:difference">
<path d="M44.8 3.55449L44.3644 3.99056L42.1022 6.25578L35.1998 13.165L33.0517 15.3167L32.3886 15.9799L28.8004 19.572L28.5255 19.8471L26.2634 22.1118L25.6003 22.7755L24 24.3776L21.7372 22.1118L19.475 19.8471L19.2002 19.572L12.4119 12.7764L6.01184 6.36934L5.89782 6.25578L3.63564 3.99056L3.20004 3.55449L0 0.351562V12.7764V13.9429V15.9799V16.6905V18.4722V19.1834V21.2203V22.3869V25.4944V25.8526V41.6074H3.20004V38.4039V36.1392V12.7764V12.6154V8.08494L3.63564 8.52101L4.68634 9.57285L5.89899 10.7868L6.40008 11.2885L7.88637 12.7764L8.16118 13.0515L10.424 15.3167L11.0864 15.9799L12.6861 17.5813L12.8002 17.6955L14.2865 19.1834L14.9495 19.8471L17.2129 22.1124L17.4865 22.3869L19.2002 24.1025L19.475 24.3776L20.6865 25.5904L21.7378 26.6428L22.4003 27.306L23.8866 28.7939H24.114L25.6003 27.306L26.2634 26.6428L27.3141 25.5904L28.5261 24.3776L28.8004 24.1025L30.5141 22.3869L30.7889 22.1124L32.0004 20.899L33.0517 19.8471L33.7141 19.1834L35.1998 17.6955L35.3139 17.5813L36.9142 15.9799L37.5772 15.3167L38.3999 14.492L39.84 13.0515L40.1142 12.7764L41.5999 11.2885L42.1022 10.7868L43.3137 9.57285L44.3655 8.52101L44.8 8.08494V36.1392V38.4039V41.6074H48V27.5325V25.7514V23.0032V21.2203V18.4722V16.6905V15.9799V13.9429V12.7764V0.351562L44.8 3.55449Z" fill="white"/>
</g>
<g style="mix-blend-mode:difference">
<path d="M41.5997 37.4649V33.9395V32.9356V29.4102V28.4046V24.8792V23.8742V20.3499V19.3443V15.8188L38.2389 19.1833L37.577 19.8471L35.3137 22.1117L28.6388 28.7939L28.5254 28.9074L26.2632 31.1732L25.6001 31.8358L25.4393 31.9968L23.9998 33.4379L22.5609 31.9968L22.4001 31.8358L21.7376 31.1732L19.4749 28.9074L19.3608 28.7939L17.2115 26.6422L12.686 22.1117L10.4238 19.8471L9.76073 19.1833L6.3999 15.8188V19.3443V20.3499V23.8742V24.8792V28.4046V29.4102V32.9356V33.9395V37.4649V41.6073H9.59994V37.143V34.262V31.9968V23.5534L14.9482 28.9074L18.0348 31.9968L19.2001 33.1639L19.4749 33.4384L23.9998 37.9689L26.7654 35.2003L28.526 33.4384L28.8002 33.1639L29.9655 31.9968L38.3997 23.5534V31.9968V34.262V38.4038V41.6073H41.5997V37.4649Z" fill="white"/>
</g>
</g>
</svg>
